<?xml version="1.0" encoding="UTF-8"?>
<!DOCTYPE svg PUBLIC "-//W3C//DTD SVG 1.1//EN" "http://www.w3.org/Graphics/SVG/1.1/DTD/svg11.dtd">
<svg xmlns="http://www.w3.org/2000/svg" version="1.1" width="120px" height="120px" style="shape-rendering:geometricPrecision; text-rendering:geometricPrecision; image-rendering:optimizeQuality; fill-rule:evenodd; clip-rule:evenodd" xmlns:xlink="http://www.w3.org/1999/xlink">
<g><path style="opacity:1" fill="#fbfbfa" d="M -0.5,-0.5 C 39.5,-0.5 79.5,-0.5 119.5,-0.5C 119.5,39.5 119.5,79.5 119.5,119.5C 79.5,119.5 39.5,119.5 -0.5,119.5C -0.5,79.5 -0.5,39.5 -0.5,-0.5 Z"/></g>
<g><path style="opacity:1" fill="#f0bc0f" d="M 88.5,19.5 C 87.7611,19.369 87.0944,19.5357 86.5,20C 87.3805,20.7083 88.0472,21.5416 88.5,22.5C 85.2438,21.1429 82.5771,18.9762 80.5,16C 79.552,15.5172 78.552,15.3505 77.5,15.5C 77.4323,18.085 76.9323,20.4183 76,22.5C 81.4809,24.7998 85.9809,28.4665 89.5,33.5C 89.5654,33.9382 89.3988,34.2716 89,34.5C 86.5,32 84,29.5 81.5,27C 80.2068,26.51 78.8734,26.3433 77.5,26.5C 77.2024,29.2646 76.2024,31.7646 74.5,34C 75.1667,34.3333 75.8333,34.6667 76.5,35C 75.4366,36.1882 74.1033,36.6882 72.5,36.5C 70.088,36.6695 67.9214,36.0028 66,34.5C 64.5603,35.1476 63.0603,35.4809 61.5,35.5C 60.3701,33.6263 59.3701,31.6263 58.5,29.5C 58.0431,28.7025 57.3764,28.3691 56.5,28.5C 55.4324,27.5655 54.099,27.2322 52.5,27.5C 51.9862,25.5613 50.6528,24.5613 48.5,24.5C 45.8982,25.4344 43.8982,27.1011 42.5,29.5C 40.8958,30.287 40.2291,31.6203 40.5,33.5C 39.7321,32.7375 39.2321,31.7375 39,30.5C 38.7811,31.938 38.2811,33.2713 37.5,34.5C 33.2778,31.8031 30.2778,32.9698 28.5,38C 25.8185,38.6637 23.4852,37.997 21.5,36C 22.0944,35.5357 22.7611,35.369 23.5,35.5C 24.601,36.7997 25.9343,37.2997 27.5,37C 29.6976,33.9772 32.031,31.1438 34.5,28.5C 35.5,27.5 36.5,26.5 37.5,25.5C 38.7498,25.4226 39.5831,24.756 40,23.5C 40.4226,24.9561 41.2559,25.4561 42.5,25C 43.5171,23.9505 43.6838,22.7839 43,21.5C 41.077,20.6839 39.077,20.0172 37,19.5C 35.699,19.6387 34.8656,20.3054 34.5,21.5C 31.8646,22.8109 29.5313,24.4776 27.5,26.5C 26.596,25.791 26.2627,24.791 26.5,23.5C 40.6494,9.56522 57.3161,5.73189 76.5,12C 80.9392,13.9675 84.9392,16.4675 88.5,19.5 Z"/></g>
<g><path style="opacity:1" fill="#9e9592" d="M 68.5,13.5 C 70.3117,13.7713 71.9783,14.438 73.5,15.5C 72.7542,16.7362 72.4208,18.0695 72.5,19.5C 70.712,19.7852 69.0453,19.4519 67.5,18.5C 68.3094,16.9291 68.6427,15.2624 68.5,13.5 Z"/></g>
<g><path style="opacity:1" fill="#a9a4a0" d="M 50.5,11.5 C 51.5,11.5 52.5,11.5 53.5,11.5C 53.281,12.675 53.6143,13.675 54.5,14.5C 55.548,13.6171 56.7147,12.9504 58,12.5C 59.7043,12.974 61.5377,13.1407 63.5,13C 64.5762,14.7261 64.7429,16.5594 64,18.5C 57.8254,18.0687 51.6587,18.7354 45.5,20.5C 45.5,17.8333 45.5,15.1667 45.5,12.5C 46.9305,12.4208 48.2638,12.7542 49.5,13.5C 50.2975,13.0431 50.6309,12.3764 50.5,11.5 Z"/></g>
<g><path style="opacity:1" fill="#9b9691" d="M 88.5,22.5 C 91.1101,26.1249 93.7767,29.7915 96.5,33.5C 94.0752,37.4573 91.7419,37.4573 89.5,33.5C 85.9809,28.4665 81.4809,24.7998 76,22.5C 76.9323,20.4183 77.4323,18.085 77.5,15.5C 78.552,15.3505 79.552,15.5172 80.5,16C 82.5771,18.9762 85.2438,21.1429 88.5,22.5 Z"/></g>
<g><path style="opacity:1" fill="#a7a0a0" d="M 37.5,25.5 C 36.5116,24.205 35.5116,22.8717 34.5,21.5C 34.8656,20.3054 35.699,19.6387 37,19.5C 39.077,20.0172 41.077,20.6839 43,21.5C 43.6838,22.7839 43.5171,23.9505 42.5,25C 41.2559,25.4561 40.4226,24.9561 40,23.5C 39.5831,24.756 38.7498,25.4226 37.5,25.5 Z"/></g>
<g><path style="opacity:1" fill="#7a705e" d="M 34.5,21.5 C 35.5116,22.8717 36.5116,24.205 37.5,25.5C 36.5,26.5 35.5,27.5 34.5,28.5C 33.5384,26.0144 32.7051,26.0144 32,28.5C 30.6439,27.6198 29.1439,27.2865 27.5,27.5C 27.5,27.1667 27.5,26.8333 27.5,26.5C 29.5313,24.4776 31.8646,22.8109 34.5,21.5 Z"/></g>
<g><path style="opacity:1" fill="#393028" d="M 63.5,23.5 C 66.8709,23.5376 70.2042,23.5376 73.5,23.5C 73.6261,25.1998 74.2927,26.6998 75.5,28C 74.6978,34.094 72.6978,34.7607 69.5,30C 67.925,30.379 66.425,30.2123 65,29.5C 62.9599,27.7194 62.4599,25.7194 63.5,23.5 Z"/></g>
<g><path style="opacity:1" fill="#514a4c" d="M 52.5,27.5 C 51.4226,26.9816 50.2559,26.6483 49,26.5C 46.9274,27.7484 44.7607,28.7484 42.5,29.5C 43.8982,27.1011 45.8982,25.4344 48.5,24.5C 50.6528,24.5613 51.9862,25.5613 52.5,27.5 Z"/></g>
<g><path style="opacity:1" fill="#dcdcdb" d="M 52.5,27.5 C 54.099,27.2322 55.4324,27.5655 56.5,28.5C 56.611,32.0641 58.2777,34.3974 61.5,35.5C 63.0603,35.4809 64.5603,35.1476 66,34.5C 67.9214,36.0028 70.088,36.6695 72.5,36.5C 72.5,36.8333 72.5,37.1667 72.5,37.5C 70.4662,40.1057 68.2995,40.1057 66,37.5C 63.9742,38.0195 61.9742,38.3528 60,38.5C 58.3492,36.7898 56.5158,35.4564 54.5,34.5C 53.0916,32.8684 51.5916,31.2018 50,29.5C 49.5172,30.448 49.3505,31.448 49.5,32.5C 46.1043,32.6329 45.7709,33.6329 48.5,35.5C 46.2573,36.4742 43.924,36.8076 41.5,36.5C 41.9926,34.1944 42.3259,31.861 42.5,29.5C 44.7607,28.7484 46.9274,27.7484 49,26.5C 50.2559,26.6483 51.4226,26.9816 52.5,27.5 Z"/></g>
<g><path style="opacity:1" fill="#a6a09e" d="M 34.5,28.5 C 32.031,31.1438 29.6976,33.9772 27.5,37C 25.9343,37.2997 24.601,36.7997 23.5,35.5C 20.503,31.8873 21.503,30.2206 26.5,30.5C 26.2627,29.209 26.596,28.209 27.5,27.5C 29.1439,27.2865 30.6439,27.6198 32,28.5C 32.7051,26.0144 33.5384,26.0144 34.5,28.5 Z"/></g>
<g><path style="opacity:1" fill="#635244" d="M 56.5,28.5 C 57.3764,28.3691 58.0431,28.7025 58.5,29.5C 59.3701,31.6263 60.3701,33.6263 61.5,35.5C 58.2777,34.3974 56.611,32.0641 56.5,28.5 Z"/></g>
<g><path style="opacity:1" fill="#f3b110" d="M 88.5,19.5 C 94.3421,23.6687 98.6754,29.0021 101.5,35.5C 100.655,36.6715 99.9887,38.0048 99.5,39.5C 97.3936,40.7829 95.0602,41.6162 92.5,42C 91.7476,42.6708 91.4142,43.5041 91.5,44.5C 89.5168,45.4706 87.5168,46.4706 85.5,47.5C 83.8546,46.5213 82.5213,45.188 81.5,43.5C 71.7927,42.9141 62.1261,42.5808 52.5,42.5C 52.9864,39.2447 51.9864,36.578 49.5,34.5C 51.0026,33.9478 52.6693,33.9478 54.5,34.5C 55.4832,36.2912 56.8165,37.7912 58.5,39C 62.1954,39.3179 65.8621,39.8179 69.5,40.5C 71.4405,40.1964 73.1072,39.3631 74.5,38C 73.9056,37.5357 73.2389,37.369 72.5,37.5C 72.5,37.1667 72.5,36.8333 72.5,36.5C 74.1033,36.6882 75.4366,36.1882 76.5,35C 75.8333,34.6667 75.1667,34.3333 74.5,34C 76.2024,31.7646 77.2024,29.2646 77.5,26.5C 78.8734,26.3433 80.2068,26.51 81.5,27C 84,29.5 86.5,32 89,34.5C 89.3988,34.2716 89.5654,33.9382 89.5,33.5C 91.7419,37.4573 94.0752,37.4573 96.5,33.5C 93.7767,29.7915 91.1101,26.1249 88.5,22.5C 88.0472,21.5416 87.3805,20.7083 86.5,20C 87.0944,19.5357 87.7611,19.369 88.5,19.5 Z"/></g>
<g><path style="opacity:1" fill="#362f29" d="M 54.5,34.5 C 56.5158,35.4564 58.3492,36.7898 60,38.5C 61.9742,38.3528 63.9742,38.0195 66,37.5C 68.2995,40.1057 70.4662,40.1057 72.5,37.5C 73.2389,37.369 73.9056,37.5357 74.5,38C 73.1072,39.3631 71.4405,40.1964 69.5,40.5C 65.8621,39.8179 62.1954,39.3179 58.5,39C 56.8165,37.7912 55.4832,36.2912 54.5,34.5 Z"/></g>
<g><path style="opacity:1" fill="#f3ab13" d="M 26.5,23.5 C 26.2627,24.791 26.596,25.791 27.5,26.5C 27.5,26.8333 27.5,27.1667 27.5,27.5C 26.596,28.209 26.2627,29.209 26.5,30.5C 21.503,30.2206 20.503,31.8873 23.5,35.5C 22.7611,35.369 22.0944,35.5357 21.5,36C 23.4852,37.997 25.8185,38.6637 28.5,38C 30.2778,32.9698 33.2778,31.8031 37.5,34.5C 38.2811,33.2713 38.7811,31.938 39,30.5C 39.2321,31.7375 39.7321,32.7375 40.5,33.5C 39.5148,36.4556 38.5148,39.4556 37.5,42.5C 36.8333,42.8333 36.1667,43.1667 35.5,43.5C 34.6764,46.7848 34.1764,50.1182 34,53.5C 30.6425,56.0312 27.4758,58.6979 24.5,61.5C 23.475,61.1034 23.3083,60.4368 24,59.5C 25.0736,58.3816 26.2402,57.3816 27.5,56.5C 27.0431,55.7025 26.3764,55.3691 25.5,55.5C 25.2739,52.7508 25.6072,50.0841 26.5,47.5C 26,47.1667 25.5,46.8333 25,46.5C 23.5874,48.4127 21.7541,49.746 19.5,50.5C 18.7321,51.2625 18.2321,52.2625 18,53.5C 16.2091,50.6504 15.0424,47.6504 14.5,44.5C 16.7057,36.4158 20.7057,29.4158 26.5,23.5 Z"/></g>
<g><path style="opacity:1" fill="#be8823" d="M 91.5,44.5 C 93.7099,44.894 95.0432,46.2273 95.5,48.5C 94.7784,48.9175 94.2784,49.5842 94,50.5C 92.2423,48.1274 90.409,48.1274 88.5,50.5C 87.1667,49.8333 86.1667,48.8333 85.5,47.5C 87.5168,46.4706 89.5168,45.4706 91.5,44.5 Z"/></g>
<g><path style="opacity:1" fill="#6e5128" d="M 99.5,39.5 C 99.9382,39.4346 100.272,39.6012 100.5,40C 98.8839,40.6152 97.5505,41.6152 96.5,43C 99.5688,43.9696 100.235,45.803 98.5,48.5C 97.6533,50.9302 96.6533,50.9302 95.5,48.5C 95.0432,46.2273 93.7099,44.894 91.5,44.5C 91.4142,43.5041 91.7476,42.6708 92.5,42C 95.0602,41.6162 97.3936,40.7829 99.5,39.5 Z"/></g>
<g><path style="opacity:1" fill="#553726" d="M 25.5,55.5 C 24.7784,55.0825 24.2784,54.4158 24,53.5C 22.8173,54.731 21.6507,54.731 20.5,53.5C 20.7093,52.914 21.0426,52.414 21.5,52C 20.5842,51.7216 19.9175,51.2216 19.5,50.5C 21.7541,49.746 23.5874,48.4127 25,46.5C 25.5,46.8333 26,47.1667 26.5,47.5C 25.6072,50.0841 25.2739,52.7508 25.5,55.5 Z"/></g>
<g><path style="opacity:1" fill="#f4a414" d="M 101.5,35.5 C 106.308,43.6688 107.642,52.3355 105.5,61.5C 104.637,60.537 103.97,60.537 103.5,61.5C 104.428,62.7678 104.595,64.1011 104,65.5C 102.477,63.3799 100.644,63.0465 98.5,64.5C 97.3777,63.3698 96.0443,62.7031 94.5,62.5C 94.5394,61.4168 94.8728,60.4168 95.5,59.5C 93.5248,56.1951 91.1915,53.1951 88.5,50.5C 90.409,48.1274 92.2423,48.1274 94,50.5C 94.2784,49.5842 94.7784,48.9175 95.5,48.5C 96.6533,50.9302 97.6533,50.9302 98.5,48.5C 100.235,45.803 99.5688,43.9696 96.5,43C 97.5505,41.6152 98.8839,40.6152 100.5,40C 100.272,39.6012 99.9382,39.4346 99.5,39.5C 99.9887,38.0048 100.655,36.6715 101.5,35.5 Z"/></g>
<g><path style="opacity:1" fill="#f19717" d="M 14.5,44.5 C 15.0424,47.6504 16.2091,50.6504 18,53.5C 18.2321,52.2625 18.7321,51.2625 19.5,50.5C 19.9175,51.2216 20.5842,51.7216 21.5,52C 21.0426,52.414 20.7093,52.914 20.5,53.5C 21.6507,54.731 22.8173,54.731 24,53.5C 24.2784,54.4158 24.7784,55.0825 25.5,55.5C 26.3764,55.3691 27.0431,55.7025 27.5,56.5C 26.2402,57.3816 25.0736,58.3816 24,59.5C 23.3083,60.4368 23.475,61.1034 24.5,61.5C 24.7549,64.6765 26.4216,66.6765 29.5,67.5C 29.9312,68.2935 30.2645,69.1268 30.5,70C 29.777,72.3394 29.4437,74.506 29.5,76.5C 26.4021,76.7556 23.4021,77.4222 20.5,78.5C 16.9062,74.5772 14.7395,69.9105 14,64.5C 13.2075,57.7526 13.3742,51.0859 14.5,44.5 Z"/></g>
<g><path style="opacity:1" fill="#312a24" d="M 42.5,29.5 C 42.3259,31.861 41.9926,34.1944 41.5,36.5C 43.924,36.8076 46.2573,36.4742 48.5,35.5C 45.7709,33.6329 46.1043,32.6329 49.5,32.5C 49.3505,31.448 49.5172,30.448 50,29.5C 51.5916,31.2018 53.0916,32.8684 54.5,34.5C 52.6693,33.9478 51.0026,33.9478 49.5,34.5C 51.9864,36.578 52.9864,39.2447 52.5,42.5C 62.1261,42.5808 71.7927,42.9141 81.5,43.5C 82.5213,45.188 83.8546,46.5213 85.5,47.5C 86.1667,48.8333 87.1667,49.8333 88.5,50.5C 91.1915,53.1951 93.5248,56.1951 95.5,59.5C 94.8728,60.4168 94.5394,61.4168 94.5,62.5C 92.6198,63.0782 91.6198,64.4115 91.5,66.5C 92.4335,70.2724 92.7668,73.939 92.5,77.5C 91.7551,80.4512 91.5885,83.4512 92,86.5C 90.5557,88.1554 88.7224,88.822 86.5,88.5C 79.792,88.6961 73.1253,89.3628 66.5,90.5C 62.524,89.8362 58.524,89.5029 54.5,89.5C 56.2646,88.5386 58.2646,88.2053 60.5,88.5C 60.762,87.0222 60.4287,85.6888 59.5,84.5C 57.4648,83.9588 55.4648,83.2922 53.5,82.5C 52.8545,80.5679 51.5212,79.4012 49.5,79C 51.0581,78.79 52.3915,78.29 53.5,77.5C 53.4456,75.368 52.4456,74.0347 50.5,73.5C 49.5305,72.3707 48.3638,71.3707 47,70.5C 45.323,71.1627 43.4897,71.1627 41.5,70.5C 38.2007,70.8428 38.2007,72.1761 41.5,74.5C 39.9547,75.4519 38.288,75.7852 36.5,75.5C 36.2865,77.1439 36.6198,78.6439 37.5,80C 46.6498,81.4478 46.6498,82.1144 37.5,82C 36.6198,83.3561 36.2865,84.8561 36.5,86.5C 39.1667,86.5 41.8333,86.5 44.5,86.5C 45.0447,82.8284 45.3781,83.1617 45.5,87.5C 48.1873,87.3359 50.854,87.5026 53.5,88C 52.552,88.4828 51.552,88.6495 50.5,88.5C 44.1579,88.6662 37.8246,88.4995 31.5,88C 30.9558,87.2828 30.2891,86.7828 29.5,86.5C 30.6267,83.1906 30.6267,79.8573 29.5,76.5C 29.4437,74.506 29.777,72.3394 30.5,70C 30.2645,69.1268 29.9312,68.2935 29.5,67.5C 26.4216,66.6765 24.7549,64.6765 24.5,61.5C 27.4758,58.6979 30.6425,56.0312 34,53.5C 34.1764,50.1182 34.6764,46.7848 35.5,43.5C 36.1667,43.1667 36.8333,42.8333 37.5,42.5C 38.5148,39.4556 39.5148,36.4556 40.5,33.5C 40.2291,31.6203 40.8958,30.287 42.5,29.5 Z"/></g>
<g><path style="opacity:1" fill="#a56b3b" d="M 45.5,45.5 C 50.4045,46.8817 54.4045,49.715 57.5,54C 60.9681,55.9698 64.3015,58.1365 67.5,60.5C 68.4402,63.0523 67.4402,63.8856 64.5,63C 59.5699,60.0355 55.2366,56.3688 51.5,52C 49.8632,51.3988 48.1966,50.8988 46.5,50.5C 40.2168,54.9415 34.0502,59.6082 28,64.5C 26.4222,63.2887 26.2555,61.9554 27.5,60.5C 33.5441,55.4472 39.5441,50.4472 45.5,45.5 Z"/></g>
<g><path style="opacity:1" fill="#613f20" d="M 50.5,45.5 C 60.3247,44.3417 70.3247,44.1751 80.5,45C 84.8679,49.033 88.8679,53.3663 92.5,58C 84.9215,59.689 77.2548,60.3556 69.5,60C 62.8256,55.6573 56.4922,50.8239 50.5,45.5 Z"/></g>
<g><path style="opacity:1" fill="#84795c" d="M 40.5,38.5 C 41.3149,39.4293 42.1482,40.4293 43,41.5C 43.4828,40.552 43.6495,39.552 43.5,38.5C 45.8333,38.5 48.1667,38.5 50.5,38.5C 50.5,39.8333 50.5,41.1667 50.5,42.5C 49.1266,42.3433 47.7932,42.51 46.5,43C 45.0471,45.7052 43.0471,46.5385 40.5,45.5C 40.9767,44.5224 41.6433,43.6891 42.5,43C 40.8934,41.951 40.2267,40.451 40.5,38.5 Z"/></g>
<g><path style="opacity:1" fill="#736850" d="M 44.5,52.5 C 48.6781,53.1452 52.0114,55.3119 54.5,59C 56.3839,59.2163 58.0506,59.883 59.5,61C 52.1742,61.4997 44.8409,61.6663 37.5,61.5C 37.3505,60.448 37.5172,59.448 38,58.5C 40.7107,56.951 42.8774,54.951 44.5,52.5 Z"/></g>
<g><path style="opacity:1" fill="#91613b" d="M 70.5,61.5 C 74.5138,61.3345 78.5138,61.5012 82.5,62C 80.5413,63.0963 78.3747,63.5963 76,63.5C 73.7047,63.4535 71.8714,62.7868 70.5,61.5 Z"/></g>
<g><path style="opacity:1" fill="#7c4f28" d="M 81.5,64.5 C 84.5,64.5 87.5,64.5 90.5,64.5C 90.5,65.5 90.5,66.5 90.5,67.5C 83.1876,68.3466 75.8543,69.0132 68.5,69.5C 68.5,68.1667 68.5,66.8333 68.5,65.5C 73.0323,65.8182 77.3656,65.4849 81.5,64.5 Z"/></g>
<g><path style="opacity:1" fill="#915d31" d="M 42.5,65.5 C 48.2055,65.1712 53.8722,65.5046 59.5,66.5C 58.9747,67.1924 58.3081,67.6924 57.5,68C 59.2705,68.5354 59.6039,69.3687 58.5,70.5C 52.8848,69.7109 47.2182,69.2109 41.5,69C 40.062,68.7811 38.7287,68.2811 37.5,67.5C 39.2914,66.8302 40.9581,66.1635 42.5,65.5 Z"/></g>
<g><path style="opacity:1" fill="#322926" d="M 20.5,64.5 C 23.1815,66.1616 25.1815,68.495 26.5,71.5C 24.9943,74.474 23.3276,74.8073 21.5,72.5C 20.52,69.9135 20.1866,67.2469 20.5,64.5 Z"/></g>
<g><path style="opacity:1" fill="#f18d16" d="M 105.5,61.5 C 105.071,67.7901 103.071,73.4568 99.5,78.5C 97.1944,78.0074 94.861,77.6741 92.5,77.5C 92.7668,73.939 92.4335,70.2724 91.5,66.5C 91.6198,64.4115 92.6198,63.0782 94.5,62.5C 96.0443,62.7031 97.3777,63.3698 98.5,64.5C 100.644,63.0465 102.477,63.3799 104,65.5C 104.595,64.1011 104.428,62.7678 103.5,61.5C 103.97,60.537 104.637,60.537 105.5,61.5 Z"/></g>
<g><path style="opacity:1" fill="#865f3d" d="M 54.5,71.5 C 61.9393,71.2613 62.4393,72.928 56,76.5C 55.5,76.1667 55,75.8333 54.5,75.5C 55.376,74.7492 56.376,74.2492 57.5,74C 55.8807,73.7645 54.8807,72.9311 54.5,71.5 Z"/></g>
<g><path style="opacity:1" fill="#55442f" d="M 50.5,73.5 C 48.8235,74.1834 48.1568,75.5168 48.5,77.5C 50.1667,77.5 51.8333,77.5 53.5,77.5C 52.3915,78.29 51.0581,78.79 49.5,79C 51.5212,79.4012 52.8545,80.5679 53.5,82.5C 55.4648,83.2922 57.4648,83.9588 59.5,84.5C 60.4287,85.6888 60.762,87.0222 60.5,88.5C 58.2646,88.2053 56.2646,88.5386 54.5,89.5C 52.901,89.7678 51.5676,89.4345 50.5,88.5C 51.552,88.6495 52.552,88.4828 53.5,88C 50.854,87.5026 48.1873,87.3359 45.5,87.5C 45.3781,83.1617 45.0447,82.8284 44.5,86.5C 41.8333,86.5 39.1667,86.5 36.5,86.5C 36.2865,84.8561 36.6198,83.3561 37.5,82C 46.6498,82.1144 46.6498,81.4478 37.5,80C 36.6198,78.6439 36.2865,77.1439 36.5,75.5C 38.288,75.7852 39.9547,75.4519 41.5,74.5C 38.2007,72.1761 38.2007,70.8428 41.5,70.5C 43.4897,71.1627 45.323,71.1627 47,70.5C 48.3638,71.3707 49.5305,72.3707 50.5,73.5 Z"/></g>
<g><path style="opacity:1" fill="#916135" d="M 83.5,69.5 C 85.8333,69.5 88.1667,69.5 90.5,69.5C 90.7135,71.1439 90.3802,72.6439 89.5,74C 82.5151,74.7714 75.5151,75.2714 68.5,75.5C 68.5,74.1667 68.5,72.8333 68.5,71.5C 73.1785,71.6658 77.8452,71.4992 82.5,71C 83.056,70.6174 83.3893,70.1174 83.5,69.5 Z"/></g>
<g><path style="opacity:1" fill="#c7c325" d="M 50.5,73.5 C 52.4456,74.0347 53.4456,75.368 53.5,77.5C 51.8333,77.5 50.1667,77.5 48.5,77.5C 48.1568,75.5168 48.8235,74.1834 50.5,73.5 Z"/></g>
<g><path style="opacity:1" fill="#7d562f" d="M 72.5,76.5 C 78.1764,76.3339 83.8431,76.5006 89.5,77C 90.8146,78.3946 90.4812,79.3946 88.5,80C 81.8552,81.5466 75.1885,81.7133 68.5,80.5C 68.1667,79.8333 67.8333,79.1667 67.5,78.5C 69.2914,77.8302 70.9581,77.1635 72.5,76.5 Z"/></g>
<g><path style="opacity:1" fill="#815b34" d="M 71.5,82.5 C 77.5722,82.8454 83.5722,82.8454 89.5,82.5C 90.4287,83.6888 90.762,85.0222 90.5,86.5C 83.1656,87.6374 75.8323,87.6374 68.5,86.5C 68.1667,85.8333 67.8333,85.1667 67.5,84.5C 68.9492,83.8281 70.2825,83.1614 71.5,82.5 Z"/></g>
<g><path style="opacity:1" fill="#4d9133" d="M 29.5,76.5 C 30.6267,79.8573 30.6267,83.1906 29.5,86.5C 29.4142,87.4959 29.7476,88.3292 30.5,89C 22.2547,89.1827 14.088,89.6827 6,90.5C 5.53566,89.9056 5.36899,89.2389 5.5,88.5C 6.2899,87.2058 7.2899,86.0391 8.5,85C 12.7216,83.0591 16.7216,80.8924 20.5,78.5C 23.4021,77.4222 26.4021,76.7556 29.5,76.5 Z"/></g>
<g><path style="opacity:1" fill="#3f782e" d="M 29.5,86.5 C 30.2891,86.7828 30.9558,87.2828 31.5,88C 37.8246,88.4995 44.1579,88.6662 50.5,88.5C 51.5676,89.4345 52.901,89.7678 54.5,89.5C 58.524,89.5029 62.524,89.8362 66.5,90.5C 73.1253,89.3628 79.792,88.6961 86.5,88.5C 84.369,89.3138 82.0356,89.8138 79.5,90C 83.2875,90.1596 86.9542,90.8263 90.5,92C 86.1667,92.3333 81.8333,92.6667 77.5,93C 87.6751,93.1698 97.6751,93.6698 107.5,94.5C 75.329,94.1684 43.329,94.5018 11.5,95.5C 10.8501,95.8039 10.1835,96.1373 9.5,96.5C 7.66086,93.7315 5.32752,93.0648 2.5,94.5C 2.99249,92.1815 3.99249,90.1815 5.5,88.5C 5.36899,89.2389 5.53566,89.9056 6,90.5C 14.088,89.6827 22.2547,89.1827 30.5,89C 29.7476,88.3292 29.4142,87.4959 29.5,86.5 Z"/></g>
<g><path style="opacity:1" fill="#468631" d="M 92.5,77.5 C 94.861,77.6741 97.1944,78.0074 99.5,78.5C 106.232,81.0441 112.065,85.0441 117,90.5C 117.49,91.7932 117.657,93.1266 117.5,94.5C 114.533,93.2083 112.033,93.875 110,96.5C 109.617,95.944 109.117,95.6107 108.5,95.5C 108.5,94.8333 108.167,94.5 107.5,94.5C 97.6751,93.6698 87.6751,93.1698 77.5,93C 81.8333,92.6667 86.1667,92.3333 90.5,92C 86.9542,90.8263 83.2875,90.1596 79.5,90C 82.0356,89.8138 84.369,89.3138 86.5,88.5C 88.7224,88.822 90.5557,88.1554 92,86.5C 91.5885,83.4512 91.7551,80.4512 92.5,77.5 Z"/></g>
<g><path style="opacity:1" fill="#1e1e1e" d="M 117.5,94.5 C 116.695,97.3003 116.695,100.3 117.5,103.5C 116.127,103.343 114.793,103.51 113.5,104C 113.957,104.414 114.291,104.914 114.5,105.5C 112.922,106.298 111.256,106.798 109.5,107C 110.888,107.889 110.722,108.389 109,108.5C 107.739,108.241 106.739,107.574 106,106.5C 105.517,107.448 105.351,108.448 105.5,109.5C 102.689,109.174 100.022,108.341 97.5,107C 99.4506,105.266 100.451,103.099 100.5,100.5C 103.082,98.1615 105.748,96.4949 108.5,95.5C 109.117,95.6107 109.617,95.944 110,96.5C 112.033,93.875 114.533,93.2083 117.5,94.5 Z"/></g>
<g><path style="opacity:1" fill="#1b1b1b" d="M 11.5,95.5 C 12.0783,97.4435 13.0783,97.7768 14.5,96.5C 15.5836,97.6651 16.4169,98.9984 17,100.5C 17.6667,99.1667 18.3333,99.1667 19,100.5C 19.6077,102.154 20.1077,103.821 20.5,105.5C 16.0787,103.941 11.7453,102.441 7.5,101C 11.6208,103.415 15.6208,105.915 19.5,108.5C 18.0695,108.421 16.7362,108.754 15.5,109.5C 14.7492,108.624 14.2492,107.624 14,106.5C 13.2613,107.574 12.2613,108.241 11,108.5C 9.2399,107.37 7.40657,106.37 5.5,105.5C 7.01068,103.162 6.67735,102.496 4.5,103.5C 3.5,103.167 2.83333,102.5 2.5,101.5C 2.45801,99.1457 2.45801,96.8123 2.5,94.5C 5.32752,93.0648 7.66086,93.7315 9.5,96.5C 10.1835,96.1373 10.8501,95.8039 11.5,95.5 Z"/></g>
<g><path style="opacity:1" fill="#2d2d2b" d="M 58.5,99.5 C 59.2506,98.4265 60.2506,98.2599 61.5,99C 60.6477,100.728 59.6477,100.895 58.5,99.5 Z"/></g>
<g><path style="opacity:1" fill="#474645" d="M 90.5,102.5 C 87.9683,102.171 86.9683,101.005 87.5,99C 90.146,98.5026 92.8127,98.3359 95.5,98.5C 95.5,102.167 95.5,105.833 95.5,109.5C 94.5,109.5 93.5,109.5 92.5,109.5C 92.8151,106.789 92.1484,104.456 90.5,102.5 Z"/></g>
<g><path style="opacity:1" fill="#ecebeb" d="M 90.5,102.5 C 89.0857,100.402 89.7524,99.4017 92.5,99.5C 92.7148,101.179 92.0481,102.179 90.5,102.5 Z"/></g>
<g><path style="opacity:1" fill="#2d2a29" d="M 81.5,98.5 C 82.552,98.3505 83.552,98.5172 84.5,99C 83.8666,102.459 83.2,105.959 82.5,109.5C 81.7564,108.009 81.0897,106.509 80.5,105C 81.4231,102.959 81.7564,100.792 81.5,98.5 Z"/></g>
<g><path style="opacity:1" fill="#292725" d="M 53.5,99.5 C 54.209,98.596 55.209,98.2627 56.5,98.5C 56.8226,102.226 56.4892,105.893 55.5,109.5C 54.8328,106.023 54.1661,102.689 53.5,99.5 Z"/></g>
<g><path style="opacity:1" fill="#292928" d="M 66.5,98.5 C 67.5,98.5 68.5,98.5 69.5,98.5C 69.9578,102.166 70.9578,105.666 72.5,109C 71.552,109.483 70.552,109.649 69.5,109.5C 69.2713,105.582 68.2713,101.915 66.5,98.5 Z"/></g>
<g><path style="opacity:1" fill="#2b2a28" d="M 28.5,101.5 C 28.5,100.5 28.5,99.5 28.5,98.5C 29.5,98.5 30.5,98.5 31.5,98.5C 32.1993,102.096 33.1993,105.596 34.5,109C 33.552,109.483 32.552,109.649 31.5,109.5C 31.6928,106.189 30.6928,103.522 28.5,101.5 Z"/></g>
<g><path style="opacity:1" fill="#383735" d="M 49.5,102.5 C 50.7251,103.152 51.3917,104.319 51.5,106C 51.1667,107.167 50.8333,108.333 50.5,109.5C 49.5258,107.257 49.1924,104.924 49.5,102.5 Z"/></g>
<g><path style="opacity:1" fill="#797979" d="M 20.5,105.5 C 22.9812,106.86 22.6478,107.86 19.5,108.5C 15.6208,105.915 11.6208,103.415 7.5,101C 11.7453,102.441 16.0787,103.941 20.5,105.5 Z"/></g>
<g><path style="opacity:1" fill="#8c8c8c" d="M 111.5,99.5 C 112.239,99.369 112.906,99.5357 113.5,100C 109.903,103.748 105.57,105.748 100.5,106C 104.527,104.324 108.194,102.158 111.5,99.5 Z"/></g>
<g><path style="opacity:1" fill="#333333" d="M 36.5,102.5 C 37.7251,103.152 38.3917,104.319 38.5,106C 38.1667,107.167 37.8333,108.333 37.5,109.5C 36.5258,107.257 36.1924,104.924 36.5,102.5 Z"/></g>
<g><path style="opacity:1" fill="#373735" d="M 44.5,102.5 C 45.7251,103.152 46.3917,104.319 46.5,106C 46.1667,107.167 45.8333,108.333 45.5,109.5C 44.5258,107.257 44.1924,104.924 44.5,102.5 Z"/></g>
<g><path style="opacity:1" fill="#252525" d="M 58.5,105.5 C 59.209,104.596 60.209,104.263 61.5,104.5C 61.326,110.574 60.326,110.907 58.5,105.5 Z"/></g>
<g><path style="opacity:1" fill="#2a2a29" d="M 74.5,99.5 C 75.6009,98.4017 76.9343,98.235 78.5,99C 78.1843,102.291 77.5176,105.791 76.5,109.5C 75.8328,106.023 75.1661,102.689 74.5,99.5 Z"/></g>
<g><path style="opacity:1" fill="#2b2b2a" d="M 88.5,104.5 C 89.2389,104.369 89.9056,104.536 90.5,105C 89.6198,106.356 89.2865,107.856 89.5,109.5C 88.325,109.719 87.325,109.386 86.5,108.5C 87.1799,107.14 87.8466,105.807 88.5,104.5 Z"/></g>
<g><path style="opacity:1" fill="#3f403e" d="M 28.5,101.5 C 28.1231,103.258 27.4565,104.925 26.5,106.5C 27.6034,106.998 28.6034,107.331 29.5,107.5C 28.6798,109.111 27.3464,109.778 25.5,109.5C 25.0181,106.169 26.0181,103.503 28.5,101.5 Z"/></g>
<g><path style="opacity:1" fill="#212121" d="M 63.5,104.5 C 64.3063,105.868 65.3063,107.201 66.5,108.5C 65.675,109.386 64.675,109.719 63.5,109.5C 63.5,107.833 63.5,106.167 63.5,104.5 Z"/></g>
</svg>
