<svg width="35" height="36" viewBox="0 0 35 36" fill="none" xmlns="http://www.w3.org/2000/svg">
<path d="M30.4787 5.58974C28.505 3.21868 25.8257 1.40226 22.7905 0.512922C19.6788 -0.398983 16.1221 0.0214153 13.0485 0.866572C6.9348 2.54816 2.25081 7.20174 0.605189 13.0374C-0.0177018 15.2458 -0.143233 17.4441 0.152719 19.5725C0.152719 19.5812 0.149144 19.588 0.14974 19.5973C0.191054 20.0725 0.282224 20.521 0.404577 20.9531C1.0235 23.6511 2.32748 26.2105 4.19913 28.4974C7.43236 32.448 12.9985 35.785 18.3888 34.5762C18.3856 34.828 18.5936 35.0817 18.9151 34.9799C25.3558 32.9427 31.2834 29.4307 33.8705 23.1772C36.341 17.2079 34.5571 10.4887 30.4787 5.58974ZM0.882869 19.297C0.828048 18.8481 0.793686 18.3981 0.781967 17.948C0.788521 17.9929 0.795473 18.0378 0.802624 18.0828C0.829438 18.5034 0.876513 18.9192 0.932724 19.3318C0.916635 19.3195 0.899156 19.3087 0.882869 19.297ZM2.71301 17.1878C2.69295 17.2551 2.67249 17.322 2.65163 17.389C2.64587 17.257 2.63972 17.125 2.63852 16.9926C2.66474 16.9052 2.69037 16.8178 2.71599 16.7302C2.71301 16.8827 2.71142 17.0351 2.71301 17.1878ZM16.8633 31.9394C16.5972 31.8888 16.331 31.8385 16.0648 31.789C16.3328 31.811 16.6005 31.8389 16.8685 31.8643C16.8631 31.8896 16.8637 31.9146 16.8633 31.9394ZM27.4364 29.8359C27.5873 29.7785 27.7375 29.7163 27.8865 29.6497C27.7627 29.7453 27.6412 29.8433 27.5148 29.9364C27.4942 29.8992 27.4672 29.8655 27.4364 29.8359ZM18.3298 6.5026C18.4859 6.50904 18.6412 6.51909 18.7966 6.53047C18.7962 6.53161 18.7956 6.53256 18.7952 6.53351C18.4543 6.54962 18.1141 6.57257 17.7748 6.60405C17.9601 6.572 18.1449 6.5373 18.3298 6.5026ZM5.11519 25.0583C5.03594 24.8012 4.95768 24.5435 4.87624 24.2871C5.01211 24.5932 5.15492 24.8968 5.3017 25.1988C5.24033 25.1518 5.17756 25.1052 5.11519 25.0583ZM5.96313 9.89612C5.90354 9.93708 5.84216 9.97576 5.78099 10.0148C5.75516 9.99529 5.72895 9.97652 5.69876 9.96344C5.83581 9.84587 5.96829 9.7247 6.10157 9.60372C6.05231 9.69929 6.00702 9.79733 5.96313 9.89612ZM6.77412 22.6664C6.7771 22.5363 6.77729 22.4064 6.78087 22.2761C6.79219 22.2949 6.80034 22.3148 6.81186 22.3332C6.81702 22.3414 6.82377 22.3455 6.82973 22.3524C6.86231 22.5665 6.90322 22.7787 6.9505 22.9889C6.89091 22.882 6.83311 22.7739 6.77412 22.6664ZM8.93278 25.3031C7.12429 23.5026 7.4554 20.3185 7.60656 18.0513C7.75851 15.7751 8.13768 13.4066 7.76129 11.1319C7.80479 11.0206 7.8614 10.9201 7.91602 10.8179C8.18535 10.5268 8.43602 10.2227 8.65967 9.90086C10.2934 8.52722 13.3333 8.48152 15.2759 8.41913C18.0438 8.33039 21.0154 8.07212 23.7386 8.60895C27.0425 9.26031 27.667 12.1009 27.6291 14.9346C27.5899 17.8672 27.7395 20.9344 26.8993 23.7814C25.8279 27.4106 21.826 27.2984 18.5389 27.2555C16.8206 27.2331 15.1043 27.0983 13.3949 26.9392C11.7259 26.7841 10.1378 26.5033 8.93278 25.3031ZM14.0643 33.7517C14.8097 33.8529 15.5576 33.9383 16.3074 34.0132C15.5458 33.9887 14.7966 33.9013 14.0643 33.7517Z" fill="#D14A2F"/>
<rect x="7.33008" y="6.92432" width="20.5321" height="21" fill="#D14A2F"/>
<path d="M12.606 21.5644C15.9568 24.7635 20.4827 26.6012 25.3028 26.6012C26.714 26.6012 27.8622 25.5051 27.8622 24.1578V20.3128L21.7642 18.3723L19.241 19.9782C17.0438 19.0274 15.2633 17.3277 14.2675 15.23L15.9496 12.8212L13.917 6.99951H9.88948C8.47823 6.99951 7.33008 8.09563 7.33008 9.44293C7.33008 14.0399 9.25156 18.3621 12.606 21.5644ZM9.88948 8.62846H12.6871L14.067 12.5805L12.3432 15.049L12.5099 15.4467C13.6909 18.2654 16.0615 20.5287 19.0139 21.6561L19.4306 21.8152L22.0163 20.1696L26.1559 21.4869V24.1578C26.1559 24.6069 25.7732 24.9722 25.3028 24.9722C16.3334 24.9722 9.03635 18.0059 9.03635 9.44293C9.03635 8.99384 9.41907 8.62846 9.88948 8.62846Z" fill="white"/>
</svg>
